<svg xmlns="http://www.w3.org/2000/svg" id="Layer_1" data-name="Layer 1" viewBox="0 0 185.4 45.68"><defs><style>      .cls-1 {        fill: #fff;      }    </style></defs><g><path class="cls-1" d="M17.3,9.09h-5.71c-.94,0-1.84.39-2.47,1.09l-5.07,5.53C.82,19.22,0,21.81,0,23.89c0,4.68,2.88,7.9,6.78,8.82.26.06.51-.15.51-.41h0c0-.15-.08-.29-.21-.36-2.08-1.2-3.42-2.67-3.42-5.05,0-1.9,1.54-3.62,2.87-5.06l11.08-12.06c.23-.26.05-.67-.29-.67Z"></path><path class="cls-1" d="M9.98,23.63h5.71c.94,0,1.84-.39,2.47-1.09l5.07-5.53c3.22-3.52,4.05-6.11,4.05-8.18C27.28,4.15,24.4.93,20.5.01c-.26-.06-.51.15-.51.41h0c0,.15.08.29.21.36,2.08,1.2,3.42,2.67,3.42,5.05,0,1.9-1.54,3.62-2.87,5.06l-11.08,12.06c-.23.26-.05.67.29.67Z"></path></g><g><path class="cls-1" d="M34.96,10h2.8l4.3,12.12,4.83-12.12h2.7v13.65h-2.08v-8.4l.08-2.43-4.25,10.83h-2.68l-3.76-10.91.14,2.53v8.38h-2.07v-13.65h0Z"></path><path class="cls-1" d="M53.39,10h8.01v1.66h-5.94v4.32h5.52v1.62h-5.52v4.36h6.39v1.68h-8.45v-13.65Z"></path><path class="cls-1" d="M67.81,11.69h-4.56v-1.7h11.18v1.7h-4.56v11.95h-2.07v-11.95h0Z"></path><path class="cls-1" d="M83.63,21.46l-2.24-3.11c-.31.06-.75.08-1.12.08h-1.6v5.21h-2.08v-13.65h4.69c2.74,0,4.67,1.29,4.67,4.13,0,1.58-.75,2.99-2.47,3.73l1.93,2.59c.87,1.14,1.85,1.56,2.8,1.81l-.46,1.6c-1.31-.06-2.86-.73-4.11-2.39ZM80.39,16.83c2.07,0,3.4-.69,3.4-2.61s-.95-2.57-2.93-2.57h-2.18v5.17h1.72Z"></path><path class="cls-1" d="M89.08,16.79c0-4.29,2.84-6.99,7.16-6.99,4.55,0,6.77,3.01,6.77,7.03,0,4.23-2.63,7.05-7.14,7.05-4.4,0-6.79-2.86-6.79-7.08ZM100.91,16.81c0-3.03-1.66-5.33-4.85-5.33s-4.9,2.3-4.9,5.29,1.52,5.4,4.77,5.4c3.46,0,4.98-2.34,4.98-5.37Z"></path><path class="cls-1" d="M105.99,10h4.69c2.82,0,4.67,1.58,4.67,4.44,0,2.51-1.83,4.59-5.67,4.59h-.73v-1.68h.85c2.12,0,3.4-.93,3.4-2.84s-.89-2.86-2.93-2.86h-2.18v11.99h-2.08v-13.65h0Z"></path><path class="cls-1" d="M117.11,16.79c0-4.29,2.84-6.99,7.16-6.99,4.55,0,6.77,3.01,6.77,7.03,0,4.23-2.63,7.05-7.14,7.05-4.4,0-6.79-2.86-6.79-7.08ZM128.94,16.81c0-3.03-1.66-5.33-4.85-5.33s-4.9,2.3-4.9,5.29,1.52,5.4,4.77,5.4c3.46,0,4.98-2.34,4.98-5.37Z"></path><path class="cls-1" d="M134.02,10h2.07v11.93h5.93v1.72h-7.99v-13.65Z"></path><path class="cls-1" d="M144.68,10h2.07v13.65h-2.07v-13.65Z"></path><path class="cls-1" d="M153.42,11.69h-4.56v-1.7h11.18v1.7h-4.56v11.95h-2.07v-11.95Z"></path><path class="cls-1" d="M164.37,10h2.76l4.83,13.65h-2.18l-1.66-4.77h-5.17l-1.85,4.77h-2.08l5.37-13.65ZM167.58,17.27l-1.89-5.89-2.14,5.89h4.03Z"></path><path class="cls-1" d="M174.16,10h2.72l6.49,11.45-.08-1.66v-9.79h2.1v13.65h-2.9l-6.35-11.25.08,1.52v9.73h-2.07v-13.65Z"></path></g><g><path class="cls-1" d="M29.1,33.5h-4.56v-1.7h11.18v1.7h-4.56v11.95h-2.07v-11.95Z"></path><path class="cls-1" d="M36.53,38.6c0-4.29,2.84-6.99,7.16-6.99,4.56,0,6.78,3.01,6.78,7.03,0,4.23-2.63,7.05-7.14,7.05-4.4,0-6.79-2.86-6.79-7.08ZM48.36,38.62c0-3.03-1.66-5.33-4.85-5.33s-4.9,2.3-4.9,5.29,1.52,5.4,4.77,5.4c3.45,0,4.98-2.34,4.98-5.37Z"></path><path class="cls-1" d="M53.29,40.47v-8.67h2.12v8.53c0,2.72,1.62,3.61,3.61,3.61,2.1,0,3.65-1.02,3.65-4.05v-8.09h2.03v8.16c0,4.48-3.05,5.71-5.67,5.71-2.8,0-5.73-1.12-5.73-5.21Z"></path><path class="cls-1" d="M75.41,43.27l-2.24-3.11c-.31.06-.75.08-1.12.08h-1.6v5.21h-2.08v-13.65h4.69c2.74,0,4.67,1.29,4.67,4.13,0,1.58-.75,2.99-2.47,3.73l1.93,2.59c.87,1.14,1.85,1.56,2.8,1.81l-.46,1.6c-1.31-.06-2.86-.73-4.11-2.39ZM72.16,38.64c2.07,0,3.4-.69,3.4-2.61s-.95-2.57-2.93-2.57h-2.18v5.17h1.72Z"></path><path class="cls-1" d="M82.22,31.81h2.07v13.65h-2.07v-13.65Z"></path><path class="cls-1" d="M88.04,31.81h2.72l6.49,11.45-.08-1.66v-9.79h2.1v13.65h-2.9l-6.35-11.25.08,1.52v9.73h-2.07v-13.65Z"></path><path class="cls-1" d="M102.25,38.72c0-4.48,2.55-7.1,7.16-7.1,2.28,0,3.28.44,4,.73l-.58,1.6c-.87-.25-1.64-.56-3.4-.56-2.72,0-5.06,1.45-5.06,5.13s2.45,5.39,5.39,5.39c.81,0,1.39-.14,1.81-.19v-4.98h2.08v6.27c-1.29.42-2.45.66-4.25.66-4.5,0-7.16-2.7-7.16-6.95Z"></path></g></svg>